<svg xmlns="http://www.w3.org/2000/svg" viewBox="0 0 48 48"><g color="#000" font-family="sans-serif" font-weight="400"><path fill="#e8e8e8" d="m117.306 1676.92 9.084 2.836a.75.75 0 0 0 .94-.494l1.845-5.914a.75.75 0 0 0-.488-.938l-8.685-2.756a.766.766 0 0 0-.223-.039z" overflow="visible" style="line-height:normal;text-indent:0;text-align:start;text-decoration-line:none;text-decoration-style:solid;text-decoration-color:#000;text-transform:none;block-progression:tb;white-space:normal;isolation:auto;mix-blend-mode:normal;solid-color:#000;solid-opacity:1" transform="translate(-84.344 -1652.1)"/><path fill="#536565" style="line-height:normal;text-indent:0;text-align:start;text-decoration-line:none;text-decoration-style:solid;text-decoration-color:#000;text-transform:none;block-progression:tb;white-space:normal;isolation:auto;mix-blend-mode:normal;solid-color:#000;solid-opacity:1" d="M101.935 1677.726a.75.75 0 0 0-.748.75v8.079c0 1.712-1.78 3.492-3.492 3.492h-8.408a.75.75 0 0 0-.742.644l-.333 2.364a.75.75 0 0 0 .743.855h9.437a6.807 6.807 0 0 0 6.807-6.805v-7.574a.75.75 0 0 0-.46-.692l-2.51-1.055a.756.756 0 0 0-.294-.059z" overflow="visible" transform="translate(-84.344 -1652.1)"/><path fill="#f13f38" style="line-height:normal;text-indent:0;text-align:start;text-decoration-line:none;text-decoration-style:solid;text-decoration-color:#000;text-transform:none;block-progression:tb;white-space:normal;isolation:auto;mix-blend-mode:normal;solid-color:#000;solid-opacity:1" d="m101.59 1660.145.677-2.12a2.431 2.431 0 0 0-1.564-3.04h-.002a2.429 2.429 0 0 0-3.041 1.566l-.678 2.119z" overflow="visible" transform="translate(-84.344 -1652.1)"/><path fill="#344040" style="line-height:normal;text-indent:0;text-align:start;text-decoration-line:none;text-decoration-style:solid;text-decoration-color:#000;text-transform:none;block-progression:tb;white-space:normal;isolation:auto;mix-blend-mode:normal;solid-color:#000;solid-opacity:1" d="M86.593 1686.129a.75.75 0 0 0-.75.75v9.703c0 .414.336.75.75.75h1.743c1.288 0 2.43-.962 2.43-2.242v-6.719c0-1.28-1.142-2.242-2.43-2.242zm13.623-13.9a.75.75 0 0 0-.683.439c-.104.228-.128.389-.166.559-.038.17-.078.34-.084.359-.938 3.002.749 6.217 3.752 7.154 2.906.907 5.967-.672 7.013-3.494a.747.747 0 0 0 .141-.256c.064-.204.082-.365.107-.539.026-.173.05-.346.061-.404a.75.75 0 0 0-.516-.852l-9.402-2.933a.763.763 0 0 0-.223-.033z" overflow="visible" transform="translate(-84.344 -1652.1)"/><path fill="#dbdbdb" style="line-height:normal;text-indent:0;text-align:start;text-decoration-line:none;text-decoration-style:solid;text-decoration-color:#000;text-transform:none;block-progression:tb;white-space:normal;isolation:auto;mix-blend-mode:normal;solid-color:#000;solid-opacity:1" d="M94.548 1664.83a.75.75 0 0 0-.734.957l1.752 6.428a.75.75 0 0 0 .5.517l20.547 6.412a.75.75 0 0 0 .94-.492l1.677-5.377z" overflow="visible" transform="translate(-84.344 -1652.1)"/><path fill="#536565" style="line-height:normal;text-indent:0;text-align:start;text-decoration-line:none;text-decoration-style:solid;text-decoration-color:#000;text-transform:none;block-progression:tb;white-space:normal;isolation:auto;mix-blend-mode:normal;solid-color:#000;solid-opacity:1" d="m98.746 1666.9-.989 3.166a.75.75 0 0 0 .493.94l2.564.8a.75.75 0 0 0 .94-.494l.99-3.166zm4.658 1.45-.99 3.17a.75.75 0 0 0 .492.939l2.566.8a.75.75 0 0 0 .94-.491l.99-3.174z" overflow="visible" transform="translate(-84.344 -1652.1)"/><path fill="#536565" style="line-height:normal;text-indent:0;text-align:start;text-decoration-line:none;text-decoration-style:solid;text-decoration-color:#000;text-transform:none;block-progression:tb;white-space:normal;isolation:auto;mix-blend-mode:normal;solid-color:#000;solid-opacity:1" d="m126.217 667.266-2.473 7.302 2.647.827a.75.75 0 0 0 .94-.495l1.845-5.914a.75.75 0 0 0-.488-.937l-2.471-.783z" overflow="visible" transform="translate(-84.344 -647.738)"/><path fill="#344040" style="line-height:normal;text-indent:0;text-align:start;text-decoration-line:none;text-decoration-style:solid;text-decoration-color:#000;text-transform:none;block-progression:tb;white-space:normal;isolation:auto;mix-blend-mode:normal;solid-color:#000;solid-opacity:1" d="M95.894 1657.649c-.33 0-.62.212-.719.527l-2.154 6.945a.75.75 0 0 0 .494.94l25.14 7.82c.025.01.05.013.075.018 1.782.36 3.717-.296 5.709-1.186 1.992-.889 4.054-2.056 5.967-2.933.626-.286.569-1.194-.088-1.399l-34.203-10.697a.751.751 0 0 0-.22-.035z" overflow="visible" transform="translate(-84.344 -1652.1)"/></g></svg>