<svg xmlns="http://www.w3.org/2000/svg" viewBox="0 0 183.655 184.098"><path fill="#286ff9" d="M12.043 6.868c7.349-7.366 29.563-8.6 29.73-4.7s20.006 47.1 20.178 51-13.077 17.179-16.952 21.066c-3.841 3.847 25.923 37.567 26.486 38.206.633.569 34.272 30.4 38.114 26.55 3.876-3.887 17.13-17.165 21.006-16.992s47 20.052 50.885 20.23 2.662 22.427-4.687 29.8c-6.285 6.3-38.827 29.16-95.411-11.668-6.2-3.577-16.032-11.783-30.937-26.716a.124.124 0 0 0-.029-.023.2.2 0 0 0-.035-.035l-.035-.035a.126.126 0 0 0-.023-.029c-14.894-14.94-23.082-24.8-26.653-31.012C-17.048 45.787 5.768 13.165 12.043 6.868Z"/></svg>