<svg xmlns="http://www.w3.org/2000/svg" viewBox="0 0 32 32"><path fill="#2979ff" d="M16 18.06a5.53 5.53 0 0 1-3.64-1.36L2.53 8.18a1 1 0 1 1 1.31-1.51l9.86 8.52a3.55 3.55 0 0 0 4.63 0l9.94-8.44a1 1 0 1 1 1.29 1.52l-9.93 8.44A5.56 5.56 0 0 1 16 18.06Z"/><path fill="#03a9f4" d="M26.65 26.48H5.35a4.05 4.05 0 0 1-4-4.05V9.57a4.05 4.05 0 0 1 4-4.05h21.3a4.05 4.05 0 0 1 4.05 4.05v12.86a4.05 4.05 0 0 1-4.05 4.05Zm-21.3-19a2.05 2.05 0 0 0-2 2.05v12.9a2.05 2.05 0 0 0 2.05 2.05h21.3a2.05 2.05 0 0 0 2.05-2.05V9.57a2.05 2.05 0 0 0-2.05-2.05Z"/></svg>