<svg xmlns="http://www.w3.org/2000/svg" viewBox="0 0 64 64"><rect width="36" height="32" x="3" y="13" fill="#ffcd00"/><path fill="#ebbf00" d="M9,45H39V15A30,30,0,0,1,9,45Z"/><path fill="#006df0" d="M61,49v4H39V31h4v7a2.006,2.006,0,0,0,2,2H57a4,4,0,0,1,4,4v5Z"/><rect width="36" height="8" x="3" y="45" fill="#2488ff"/><path fill="#005ece" d="M57,40H55A10,10,0,0,1,45,50H39v3H61V44A4,4,0,0,0,57,40Z"/><rect width="36" height="3" x="3" y="50" fill="#006df0"/><path fill="#808285" d="M13.349,53H3v2a2.006,2.006,0,0,0,2,2H59a2.006,2.006,0,0,0,2-2V53Z"/><circle cx="50" cy="55" r="6" fill="#58595b"/><circle cx="19" cy="55" r="6" fill="#58595b"/><path fill="#a7a9ac" d="M45,40H55l-1.307-5.869A4,4,0,0,0,49.789,31H43v7A2,2,0,0,0,45,40Z"/><circle cx="50" cy="55" r="2" fill="#d1d3d4"/><circle cx="19" cy="55" r="2" fill="#d1d3d4"/><path fill="#d1d3d4" d="M57,47a2,2,0,0,0,2,2h2V45H59A2,2,0,0,0,57,47Z"/><rect width="24" height="16" x="9" y="23" fill="#8b5e3c"/><path fill="#754c29" d="M17,39H33V23A16,16,0,0,1,17,39Z"/><rect width="6" height="4" x="18" y="23" fill="#ee8700"/><polygon fill="#a97c50" points="33 23 9 23 11 19 31 19 33 23"/><polygon fill="#ffa733" points="24 23 23 19 19 19 18 23 24 23"/><path fill="#ff9811" d="M17 31H13a1 1 0 0 0 0 2h4a1 1 0 0 0 0-2zM17 34H13a1 1 0 0 0 0 2h4a1 1 0 0 0 0-2z"/><path fill="#004fac" d="M45,44h2a1,1,0,0,0,0-2H45a1,1,0,0,0,0,2Z"/></svg>