<svg xmlns="http://www.w3.org/2000/svg" xmlns:xlink="http://www.w3.org/1999/xlink" viewBox="0 0 91 78"><defs><rect id="a" width="14.049" height="32.825" rx="6.851"/><rect id="b" width="14.049" height="32.825" rx="6.851"/><mask id="c" width="14.049" height="32.825" x="0" y="0" fill="#fff"><use xlink:href="#a"/></mask><mask id="d" width="14.049" height="32.825" x="0" y="0" fill="#fff"><use xlink:href="#b"/></mask></defs><g fill="none" fill-rule="evenodd"><path fill="#3D42EC" stroke="#3D42EC" stroke-width="3.165" d="m17.264 19.804 1.28 1.133a4.273 4.273 0 0 0 5.124.407c7.464-4.742 14.717-7.13 21.747-7.13 6.957 0 13.786 2.34 20.459 6.984a4.273 4.273 0 0 0 5.146-.2l2.083-1.703C67.189 12.218 58.088 8.53 45.67 8.258c-12.476-.272-21.894 3.575-28.407 11.546Z"/><path stroke="#6FABF6" stroke-linejoin="round" stroke-width="5.856" d="M13.657 63.533H6.192a2.11 2.11 0 0 1-2.052-1.618c-1.202-5.01-1.45-10.365-.746-16.065C4.564 36.373 9.48 3.158 45.247 3.158s40.683 33.215 41.854 41.52c.717 5.086.445 10.805-.814 17.155a2.11 2.11 0 0 1-2.07 1.7h-5.404"/><g fill-rule="nonzero" stroke="#3D42EC" transform="translate(10.418 44.19)"><path fill="#6FABF6" stroke-width="3.165" d="M6.851 1.583A5.269 5.269 0 0 0 1.583 6.85v19.123a5.269 5.269 0 0 0 5.268 5.269h4.855c.42 0 .76-.34.76-.76V2.343a.76.76 0 0 0-.76-.76H6.851Z"/><use stroke-dasharray="40.991" stroke-linecap="round" stroke-linejoin="round" stroke-width="6.678" mask="url(#c)" transform="matrix(-1 0 0 1 14.049 0)" xlink:href="#a"/></g><g fill-rule="nonzero" stroke="#3D42EC" transform="translate(65.443 44.19)"><path fill="#6FABF6" stroke-width="3.165" d="M3.165 1.583c-.874 0-1.582.708-1.582 1.582V29.66c0 .874.708 1.583 1.582 1.583h4.032a5.269 5.269 0 0 0 5.27-5.269V6.851a5.269 5.269 0 0 0-5.27-5.268H3.165Z"/><use stroke-dasharray="40.991" stroke-linecap="round" stroke-linejoin="round" stroke-width="6.678" mask="url(#d)" xlink:href="#b"/></g></g></svg>