<svg xmlns="http://www.w3.org/2000/svg" data-name="Layer 1" viewBox="0 0 64 64"><path fill="gray" d="M3 43h58v4a2 2 0 0 1-2 2H5a2 2 0 0 1-2-2v-4Z"/><path fill="#6b6b6b" d="M3 43h58v3H3z"/><path fill="#94e6ff" d="M5.83 11h52v32h-52z"/><path fill="#5cb7e6" d="M5.83 11h52v3h-52z"/><path fill="#ffcc40" d="M25.42 43h14v3h-14z"/><rect width="18" height="32" x="43" y="21" fill="#fc7a71" rx="2" ry="2"/><path fill="#db584f" d="M45 21h14a2 2 0 0 1 2 2v1H43v-1a2 2 0 0 1 2-2Z"/><path fill="#ebe3d8" d="M43 49h18v2a2 2 0 0 1-2 2H45a2 2 0 0 1-2-2v-2Z"/><path fill="#0a1827" d="M30 16h4a1 1 0 0 0 0-2h-4a1 1 0 0 0 0 2Z"/><path fill="#0a1827" d="M59 20h-.17v-9a1 1 0 0 0-1-1h-52a1 1 0 0 0-1 1v31H3a1 1 0 0 0-1 1v4a3 3 0 0 0 3 3h37v1a3 3 0 0 0 3 3h14a3 3 0 0 0 3-3V23a3 3 0 0 0-3-3ZM6.83 12h50v8H45a3 3 0 0 0-3 3v19H6.83Zm19.59 32h12v1h-12ZM5 48a1 1 0 0 1-1-1v-3h20.42v2a1 1 0 0 0 1 1h14a1 1 0 0 0 1-1v-2H42v4Zm55 3a1 1 0 0 1-1 1H45a1 1 0 0 1-1-1V23a1 1 0 0 1 1-1h14a1 1 0 0 1 1 1Z"/><path fill="#0a1827" d="M53 23h-2a1 1 0 0 0 0 2h2a1 1 0 0 0 0-2Z"/></svg>