<svg xmlns="http://www.w3.org/2000/svg" data-name="Layer 1" viewBox="0 0 64 64"><rect width="34" height="58" x="15" y="3" fill="#94e6ff" rx="2" ry="2"/><path fill="gray" d="M17,54H47a2,2,0,0,1,2,2v5a0,0,0,0,1,0,0H15a0,0,0,0,1,0,0V56A2,2,0,0,1,17,54Z" transform="rotate(180 32 57.5)"/><path fill="gray" d="M16.87,3H47.13A1.87,1.87,0,0,1,49,4.87V10a0,0,0,0,1,0,0H15a0,0,0,0,1,0,0V4.87A1.87,1.87,0,0,1,16.87,3Z"/><path fill="#6b6b6b" d="M17,3H47a2,2,0,0,1,2,2V6a0,0,0,0,1,0,0H15a0,0,0,0,1,0,0V5A2,2,0,0,1,17,3Z"/><rect width="34" height="3" x="15" y="54" fill="#6b6b6b"/><rect width="14" height="20" x="25" y="24" fill="#ffcc40"/><rect width="14" height="3" x="25" y="24" fill="#ed9b28"/><rect width="5" height="4" x="29.5" y="20" fill="#fc7a71"/><path fill="#0a1827" d="M17,62H47a3,3,0,0,0,3-3V4.87A2.88,2.88,0,0,0,47.13,2H16.87A2.88,2.88,0,0,0,14,4.87V59A3,3,0,0,0,17,62ZM16,11H48V53H16ZM48,59a1,1,0,0,1-1,1H17a1,1,0,0,1-1-1V55H48ZM47,4a1,1,0,0,1,1,1V9H16V5a1,1,0,0,1,1-1Z"/><path fill="#0a1827" d="M39 23H35.5V20a1 1 0 0 0-1-1h-5a1 1 0 0 0-1 1v3H25a1 1 0 0 0-1 1V44a1 1 0 0 0 1 1H39a1 1 0 0 0 1-1V24A1 1 0 0 0 39 23zm-8.5-2h3v2h-3zM38 43H26V25H38zM29 7.5h6a1 1 0 0 0 0-2H29a1 1 0 0 0 0 2zM26 58.5H38a1 1 0 0 0 0-2H26a1 1 0 0 0 0 2z"/><path fill="#0a1827" d="M35 39H29a1 1 0 0 0 0 2h6a1 1 0 0 0 0-2zM35 35H29a1 1 0 0 0 0 2h6a1 1 0 0 0 0-2zM28 32a1 1 0 0 0 1 1h6a1 1 0 0 0 0-2H29A1 1 0 0 0 28 32z"/></svg>