<svg xmlns="http://www.w3.org/2000/svg" fill-rule="evenodd" clip-rule="evenodd" image-rendering="optimizeQuality" shape-rendering="geometricPrecision" text-rendering="geometricPrecision" viewBox="0 0 512 512"><path fill="#368498" d="M506 373l-268 0c3-24 3-48 2-72 0-7 0-14 0-20 0-6-2-10-6-14-4-3-9-5-14-4-2 0-5 0-8 0-17 0-33-6-47-16-6-4-14-11-20-17-3-4-8-6-13-6-5 0-10 2-14 6-5 6-13 13-20 17-14 10-30 16-47 16-2 0-5 0-8 0-5-1-10 1-14 4-3 4-6 8-6 14 0 6 0 13 0 20 0 24 0 48 3 72l-20 0c-3 0-6-2-6-6l0-207 512 0 0 207c0 4-3 6-6 6zm-28-103l-203 0c-4 0-6-2-6-6 0-3 2-6 6-6l203 0c3 0 6 3 6 6 0 4-3 6-6 6zm-179 39l-24 0c-4 0-6-2-6-6 0-3 2-6 6-6l24 0c4 0 6 3 6 6 0 4-2 6-6 6zm62 0l-24 0c-4 0-6-2-6-6 0-3 2-6 6-6l24 0c4 0 6 3 6 6 0 4-2 6-6 6zm117 0l-79 0c-4 0-6-2-6-6 0-3 2-6 6-6l79 0c3 0 6 3 6 6 0 4-3 6-6 6zm-478-235l0-46c0-3 3-6 6-6l500 0c3 0 6 3 6 6l0 46-512 0zM506 148l-500 0c-3 0-6-3-6-6l0-50c0-4 3-6 6-6l500 0c3 0 6 2 6 6l0 50c0 3-3 6-6 6z"/><path fill="#f4a996" d="M132 490c-1,0 -2,0 -2,-1 -44,-17 -71,-43 -84,-79 -11,-33 -11,-70 -11,-109 0,-6 0,-13 0,-20 0,-2 1,-4 2,-5 2,-1 3,-2 5,-1 3,0 6,0 9,0 44,0 76,-37 76,-37 1,-1 3,-2 5,-2 2,0 3,1 4,2 1,0 33,37 76,37 3,0 6,0 9,0 2,-1 4,0 5,1 1,1 2,3 2,5 0,7 0,14 0,20 1,39 1,76 -11,109 -13,36 -40,62 -83,79 -1,1 -1,1 -2,1zm-30 -78c-1,0 -3,-1 -4,-2l-28 -27c-2,-3 -2,-7 0,-9 3,-2 7,-2 9,0l23 24 83 -83c2,-2 6,-2 8,0 2,3 2,6 0,9l-86 86c-2,1 -3,2 -5,2z"/></svg>