<svg xmlns="http://www.w3.org/2000/svg" viewBox="0 0 512 512"><linearGradient id="a" x1="256" x2="256" y1="184.359" y2="414.297" gradientUnits="userSpaceOnUse"><stop offset="0" stop-color="#E8F4F9"/><stop offset="1" stop-color="#D7F2FF"/></linearGradient><circle cx="256" cy="299.328" r="114.969" fill="url(#a)"/><path fill="#054776" d="M435.34 267.48c-1.89-6.33-7.72-10.97-14.63-11.08v-20.31c9.36-1.47 17.26-8.02 20.31-17.19.88-2.6 1.33-5.34 1.33-8.14 0-12.24-1.2-24.49-3.58-36.41C421.5 87.47 344.62 24.41 255.99 24.41c-88.64 0-165.51 63.06-182.79 149.94a186.361 186.361 0 0 0-3.58 36.41c0 2.78.45 5.5 1.32 8.09v.01c0 .01 0 .01.01.01v.02c1.53 4.59 4.26 8.53 7.79 11.49 3.52 2.97 7.84 4.98 12.52 5.71v20.19c-6.9.12-12.71 4.76-14.6 11.09-17.49 7.41-29.09 24.78-29.09 43.91 0 19.13 11.6 36.51 29.09 43.92 1.92 6.41 7.86 11.09 14.88 11.09h7.44c8.57 0 15.54-6.97 15.54-15.54v-78.94c0-8.48-6.82-15.38-15.26-15.53v-20.19c9.37-1.47 17.26-8.01 20.31-17.19v-.02c.01-.01.01-.01.01-.02v-.01c.88-2.59 1.32-5.31 1.32-8.09 0-11.75 1.52-23.39 4.5-34.61 15.69-59.16 69.39-100.48 130.59-100.48s114.89 41.32 130.58 100.49c2.99 11.21 4.5 22.86 4.5 34.6 0 2.8.45 5.53 1.32 8.1 3.04 9.21 10.94 15.76 20.32 17.23v20.31c-8.43.17-15.23 7.06-15.23 15.53v78.94c0 8.57 6.97 15.54 15.54 15.54h3.44v44.96l-81.97 31.53c-5.13-9.36-15.08-15.72-26.49-15.72-16.66 0-30.21 13.55-30.21 30.21 0 16.65 13.55 30.2 30.21 30.2 16.65 0 30.2-13.55 30.2-30.2 0-2.42-.29-4.77-.83-7.03l84.53-32.51.06-.03c.13-.06.26-.13.39-.2.11-.06.22-.11.31-.17.1-.07.19-.15.28-.22.11-.09.23-.17.33-.27.07-.07.13-.15.19-.23.11-.12.21-.23.3-.36.06-.09.11-.19.16-.29.08-.12.15-.24.21-.38.04-.1.07-.21.11-.31.04-.14.1-.28.13-.43.02-.09.02-.19.04-.28.02-.17.05-.34.05-.52v-48.29c5.21-1.39 9.35-5.41 10.89-10.56 17.48-7.41 29.08-24.78 29.08-43.91s-11.6-36.5-29.09-43.92zM76 345.99c-12.42-6.91-20.43-20.21-20.43-34.71s8.01-27.79 20.43-34.71v69.42zm232 133.6c-12.25 0-22.21-9.96-22.21-22.2 0-12.25 9.96-22.21 22.21-22.21 12.24 0 22.2 9.96 22.2 22.21 0 12.24-9.96 22.2-22.2 22.2zM106.52 271.81v78.94c0 4.16-3.38 7.54-7.54 7.54h-7.44c-4.16 0-7.54-3.38-7.54-7.54v-78.94c0-4.16 3.38-7.54 7.54-7.54h7.44c4.16 0 7.54 3.38 7.54 7.54zm293.46-55.49c-.6-1.77-.91-3.64-.91-5.56 0-12.44-1.6-24.77-4.77-36.66-16.61-62.66-73.49-106.43-138.31-106.43-64.83 0-121.71 43.77-138.32 106.43a142.649 142.649 0 0 0-4.77 36.66c0 1.92-.3 3.79-.9 5.56-.01.01-.01.02-.02.03-2.38 7.21-9.09 12.05-16.71 12.05h-.01c-3.81 0-7.4-1.21-10.32-3.32a17.423 17.423 0 0 1-6.4-8.73c-.01-.01-.01-.02-.02-.03h.01c-.6-1.77-.91-3.64-.91-5.56 0-11.72 1.15-23.45 3.42-34.85 16.54-83.15 90.12-143.5 174.95-143.5s158.4 60.35 174.94 143.5c2.27 11.4 3.42 23.13 3.42 34.85 0 1.92-.3 3.79-.91 5.59a17.594 17.594 0 0 1-16.72 12.05h-.02c-7.61 0-14.33-4.84-16.72-12.08zM428 350.87c0 4.16-3.38 7.54-7.54 7.54h-7.44c-4.16 0-7.54-3.38-7.54-7.54v-78.94c0-4.16 3.38-7.54 7.54-7.54h7.44c4.16 0 7.54 3.38 7.54 7.54v78.94zm8-4.76v-69.42c12.42 6.92 20.43 20.21 20.43 34.71s-8.01 27.79-20.43 34.71z"/><linearGradient id="b" x1="84" x2="106.52" y1="311.28" y2="311.28" gradientUnits="userSpaceOnUse"><stop offset="0" stop-color="#C1E9F4"/><stop offset="1" stop-color="#97DCFF"/></linearGradient><path fill="url(#b)" d="M106.52 271.81v78.94c0 4.16-3.38 7.54-7.54 7.54h-7.44c-4.16 0-7.54-3.38-7.54-7.54v-78.94c0-4.16 3.38-7.54 7.54-7.54h7.44c4.16 0 7.54 3.38 7.54 7.54z"/><linearGradient id="c" x1="55.57" x2="76" y1="311.28" y2="311.28" gradientUnits="userSpaceOnUse"><stop offset="0" stop-color="#E8F4F9"/><stop offset="1" stop-color="#D7F2FF"/></linearGradient><path fill="url(#c)" d="M76 276.57v69.42c-12.42-6.91-20.43-20.21-20.43-34.71s8.01-27.79 20.43-34.71z"/><linearGradient id="d" x1="285.79" x2="330.2" y1="457.385" y2="457.385" gradientUnits="userSpaceOnUse"><stop offset="0" stop-color="#80E0F9"/><stop offset="1" stop-color="#4AC7FF"/></linearGradient><path fill="url(#d)" d="M330.2 457.39c0 12.24-9.96 22.2-22.2 22.2-12.25 0-22.21-9.96-22.21-22.2 0-12.25 9.96-22.21 22.21-22.21 12.24 0 22.2 9.96 22.2 22.21z"/><linearGradient id="e" x1="293.795" x2="322.195" y1="457.385" y2="457.385" gradientUnits="userSpaceOnUse"><stop offset="0" stop-color="#E8F4F9"/><stop offset="1" stop-color="#D7F2FF"/></linearGradient><path fill="url(#e)" d="M322.195 457.388c0 7.827-6.369 14.197-14.197 14.197-7.834 0-14.203-6.369-14.203-14.197 0-7.834 6.369-14.203 14.203-14.203 7.828 0 14.197 6.369 14.197 14.203z"/><linearGradient id="f" x1="456.43" x2="436" y1="311.4" y2="311.4" gradientUnits="userSpaceOnUse"><stop offset="0" stop-color="#E8F4F9"/><stop offset="1" stop-color="#D7F2FF"/></linearGradient><path fill="url(#f)" d="M456.43 311.4c0 14.5-8.01 27.79-20.43 34.71v-69.42c12.42 6.92 20.43 20.21 20.43 34.71z"/><linearGradient id="g" x1="428" x2="405.48" y1="311.4" y2="311.4" gradientUnits="userSpaceOnUse"><stop offset="0" stop-color="#C1E9F4"/><stop offset="1" stop-color="#97DCFF"/></linearGradient><path fill="url(#g)" d="M428 271.93v78.94c0 4.16-3.38 7.54-7.54 7.54h-7.44c-4.16 0-7.54-3.38-7.54-7.54v-78.94c0-4.16 3.38-7.54 7.54-7.54h7.44c4.16 0 7.54 3.38 7.54 7.54z"/><path d="M442.25 281.01v60.78a39.249 39.249 0 0 1-6.25 4.32v-69.42c2.23 1.24 4.32 2.69 6.25 4.32zM419.37 358.41h-6.35c-4.16 0-7.54-3.38-7.54-7.54v-78.94c0-4.16 3.38-7.54 7.54-7.54h6.35c-4.16 0-7.54 3.38-7.54 7.54v78.94c0 4.16 3.38 7.54 7.54 7.54zM69.75 280.89v60.78c1.93 1.63 4.02 3.08 6.25 4.32v-69.42a39.249 39.249 0 0 0-6.25 4.32zM92.63 358.29h6.35c4.16 0 7.54-3.38 7.54-7.54v-78.94c0-4.16-3.38-7.54-7.54-7.54h-6.35c4.16 0 7.54 3.38 7.54 7.54v78.94c0 4.16-3.38 7.54-7.54 7.54z" opacity=".1"/><linearGradient id="h" x1="255.985" x2="255.985" y1="32.41" y2="228.4" gradientUnits="userSpaceOnUse"><stop offset="0" stop-color="#80E0F9"/><stop offset="1" stop-color="#4AC7FF"/></linearGradient><path fill="url(#h)" d="M434.35 210.76c0 1.92-.3 3.79-.91 5.59a17.594 17.594 0 0 1-16.72 12.05h-.02c-7.61 0-14.33-4.84-16.72-12.08-.6-1.77-.91-3.64-.91-5.56 0-12.44-1.6-24.77-4.77-36.66-16.61-62.66-73.49-106.43-138.31-106.43-64.83 0-121.71 43.77-138.32 106.43a142.649 142.649 0 0 0-4.77 36.66c0 1.92-.3 3.79-.9 5.56-.01.01-.01.02-.02.03-2.38 7.21-9.09 12.05-16.71 12.05h-.01c-3.81 0-7.4-1.21-10.32-3.32a17.423 17.423 0 0 1-6.4-8.73c-.01-.01-.01-.02-.02-.03h.01c-.6-1.77-.91-3.64-.91-5.56 0-11.72 1.15-23.45 3.42-34.85 16.54-83.15 90.12-143.5 174.95-143.5s158.4 60.35 174.94 143.5c2.27 11.4 3.42 23.13 3.42 34.85z"/><path fill="#FFF" d="M434.35 210.76c0 .62-.03 1.24-.1 1.85-.33-9.71-1.44-19.38-3.32-28.83-16.54-83.15-90.11-143.5-174.94-143.5S97.58 100.63 81.04 183.78c-1.88 9.45-2.99 19.12-3.32 28.83-.07-.61-.1-1.23-.1-1.85 0-11.72 1.15-23.45 3.42-34.85 16.54-83.15 90.12-143.5 174.95-143.5s158.4 60.35 174.94 143.5c2.27 11.4 3.42 23.13 3.42 34.85z" opacity=".5"/><path d="M434.35 210.63c0 1.92-.3 3.79-.91 5.59a17.594 17.594 0 0 1-16.72 12.05h-.02c-7.61 0-14.33-4.84-16.72-12.08-.6-1.77-.91-3.64-.91-5.56 0-12.44-1.6-24.77-4.77-36.66-16.61-62.66-73.49-106.43-138.31-106.43-64.83 0-121.71 43.77-138.32 106.43a142.649 142.649 0 0 0-4.77 36.66c0 1.92-.3 3.79-.9 5.56-.01.01-.01.02-.02.03-2.38 7.21-9.09 12.05-16.71 12.05h-.01c-3.81 0-7.4-1.21-10.32-3.32a17.423 17.423 0 0 1-6.4-8.73c-.01-.01-.01-.02-.02-.03h.01c-.6-1.77-.91-3.64-.91-5.56 0-2.01.03-4.02.1-6.02.13 1.27.4 2.51.81 3.71h-.01c.01.01.01.02.02.03 1.19 3.61 3.46 6.62 6.4 8.73 2.92 2.11 6.51 3.32 10.32 3.32h.01c7.62 0 14.33-4.84 16.71-12.05.01-.01.01-.02.02-.03.6-1.77.9-3.64.9-5.56 0-12.45 1.61-24.78 4.77-36.66 16.61-62.66 73.49-106.43 138.32-106.43 64.82 0 121.7 43.77 138.31 106.43 3.17 11.89 4.77 24.22 4.77 36.66 0 1.92.31 3.79.91 5.56a17.564 17.564 0 0 0 16.72 12.08h.02c7.6 0 14.32-4.84 16.72-12.05.41-1.22.68-2.47.81-3.74.07 2 .1 4.01.1 6.02z" opacity=".1"/><path fill="#054776" d="M244.239 240.269h-54.061a4 4 0 0 0 0 8h50.061v46.058h-50.061a4 4 0 0 0-4 4v54.06a4 4 0 0 0 4 4h54.061a4 4 0 0 0 0-8h-50.061v-46.06h50.061a4 4 0 0 0 4-4v-54.058a4 4 0 0 0-4-4zM317.822 352.387a4 4 0 0 0 8 0V244.27a4 4 0 0 0-8 0v50.058h-46.064V244.27a4 4 0 0 0-8 0v54.058a4 4 0 0 0 4 4h50.064v50.059zM290.941 207.55v-72.919a4 4 0 0 0-8 0v72.919a4 4 0 0 0 8 0zM317.152 207.55v-53.185a4 4 0 0 0-8 0v53.185a4 4 0 0 0 8 0zM258.531 111.688a4 4 0 0 0-4 4v91.127a4 4 0 0 0 8 0v-91.127a4 4 0 0 0-4-4zM234.119 207.55l.001-72.918a4 4 0 0 0-8 0l-.001 72.918a4 4 0 0 0 8 0zM206 207.55l.001-53.184a4 4 0 0 0-8 0L198 207.55a4 4 0 0 0 8 0z"/></svg>