<svg xmlns="http://www.w3.org/2000/svg" viewBox="0 0 24 24"><g data-name="Layer 2"><path fill="#b7b7f9" d="M19.25,10.6v2.8l-2.11,5.27-.94,2.35a2.735,2.735,0,0,1-2.55,1.73h-3.3A2.735,2.735,0,0,1,7.8,21.02l-.94-2.35L4.75,13.4V10.6L6.4,6.49,7.8,2.98a2.735,2.735,0,0,1,2.55-1.73h3.3A2.735,2.735,0,0,1,16.2,2.98l1.4,3.51Z"/><path fill="#d2cfff" d="M19.25,9v7a2.737,2.737,0,0,1-2.11,2.67,2.671,2.671,0,0,1-.64.08h-9a2.671,2.671,0,0,1-.64-.08A2.737,2.737,0,0,1,4.75,16V9A2.719,2.719,0,0,1,6.4,6.49a2.53,2.53,0,0,1,1.1-.24h9a2.53,2.53,0,0,1,1.1.24A2.719,2.719,0,0,1,19.25,9Z"/><path fill="#7c5bf0" d="M21 13.75a.75.75 0 01-.75-.75V11a.75.75 0 011.5 0v2A.75.75 0 0121 13.75zM13.64 22.75H10.36A2.765 2.765 0 017.8 21.016L6.7 18.268a.751.751 0 111.4-.555l1.1 2.746a1.259 1.259 0 001.165.791h3.28a1.258 1.258 0 001.163-.785l.3-.746a.75.75 0 011.391.562l-.3.74A2.763 2.763 0 0113.64 22.75zM17.04 7.85a.75.75 0 01-.7-.471L14.805 3.536a1.246 1.246 0 00-1.16-.786h-3.29a1.247 1.247 0 00-1.16.785L7.656 7.379A.75.75 0 116.264 6.82L7.8 2.978A2.737 2.737 0 0110.355 1.25h3.29A2.737 2.737 0 0116.2 2.979L17.736 6.82a.75.75 0 01-.417.976A.76.76 0 0117.04 7.85z"/><path fill="#7c5bf0" d="M16.5,18.75h-9A2.752,2.752,0,0,1,4.75,16V9A2.752,2.752,0,0,1,7.5,6.25h9A2.752,2.752,0,0,1,19.25,9v7A2.752,2.752,0,0,1,16.5,18.75Zm-9-11A1.252,1.252,0,0,0,6.25,9v7A1.252,1.252,0,0,0,7.5,17.25h9A1.252,1.252,0,0,0,17.75,16V9A1.252,1.252,0,0,0,16.5,7.75Z"/></g></svg>